<?xml version="1.0" encoding="UTF-8"?>
<svg version="1.1" xmlns="http://www.w3.org/2000/svg" width="2140" height="1944">
<path d="M0 0 C1.22858797 -0.00282738 2.45717594 -0.00565475 3.72299385 -0.00856781 C10.25437749 -0.02343515 16.78573984 -0.03273699 23.31713867 -0.03710938 C28.57014094 -0.0414444 33.82297435 -0.05515928 39.07592773 -0.078125 C67.58036029 -0.20003771 95.99898883 0.06584776 124.46875 1.578125 C125.63115644 1.63980614 126.79356289 1.70148727 127.99119377 1.76503754 C229.45029397 7.27961802 329.66383166 23.28261278 506.18737793 73.45959473 C508.33893121 74.20012199 510.49200158 74.93607187 512.64550781 75.67089844 C553.87917852 89.76138576 593.92288622 106.66797264 633.34765625 125.203125 C634.35441406 125.67492187 635.36117188 126.14671875 636.3984375 126.6328125 C648.70645491 132.41167411 660.86278902 138.40763626 672.83544922 144.85351562 C675.52324297 146.2974538 678.21849834 147.72687522 680.9140625 149.15625 C695.23102199 156.78679602 709.22935127 164.90144498 723.12695312 173.26708984 C726.11663724 175.06425442 729.11385752 176.84806337 732.11328125 178.62890625 C765.59377714 198.62326465 797.60866471 221.23057813 828.34765625 245.203125 C829.49737116 246.09378185 830.64711153 246.98440584 831.796875 247.875 C838.7580066 253.28633459 845.55523907 258.85422866 852.2578125 264.58203125 C855.12343319 267.02615834 858.04171147 269.40008234 860.97265625 271.765625 C865.73572843 275.64125433 870.28129874 279.71546789 874.80078125 283.87109375 C876.93707374 285.82717752 879.09546282 287.74500197 881.28515625 289.640625 C886.15000403 293.87648236 890.89796918 298.23871503 895.63330078 302.61816406 C896.79182209 303.68924358 897.95168932 304.75886885 899.11279297 305.82714844 C907.72134251 313.75613626 916.12236469 321.87672591 924.41015625 330.140625 C925.73067993 331.45426025 925.73067993 331.45426025 927.07788086 332.79443359 C931.49364989 337.22075152 935.77404811 341.70028372 939.82397461 346.46508789 C941.42690586 348.29352365 943.11178929 350.00108519 944.84765625 351.703125 C947.8836055 354.69184837 950.69274284 357.82018979 953.47265625 361.046875 C955.52124719 363.40275458 957.61968627 365.7081996 959.72265625 368.015625 C963.60116352 372.31272327 967.27631593 376.74071254 970.9140625 381.2421875 C973.0991882 383.90081556 975.33165375 386.5036089 977.59204102 389.09765625 C983.69642455 396.11368844 989.39836683 403.37144824 995 410.79296875 C997.79657472 414.49574203 1000.65473312 418.14551092 1003.53027344 421.78710938 C1057.90197105 490.83341652 1100.0494697 570.64618702 1139.34765625 675.203125 C1139.58464233 675.87672058 1139.82162842 676.55031616 1140.0657959 677.24432373 C1166.2664224 751.86638896 1182.25652609 829.51405053 1190.09765625 908.140625 C1190.24936783 909.64036865 1190.24936783 909.64036865 1190.40414429 911.17041016 C1193.89869632 946.1209778 1194.72207084 980.89288341 1194.66551208 1015.99769592 C1194.66008679 1019.49793607 1194.65770888 1022.99816949 1194.65563965 1026.49841309 C1194.6252021 1059.53070683 1194.27832094 1092.42722705 1191.57873535 1125.36688232 C1191.34197967 1128.27279877 1191.11662982 1131.17942919 1190.89355469 1134.08642578 C1183.82188358 1225.42534659 1168.05732538 1315.79008712 1140.34765625 1403.203125 C1139.99054565 1404.33666412 1139.99054565 1404.33666412 1139.6262207 1405.49310303 C1128.4618606 1440.92229331 1115.12213174 1475.56712075 1099.34765625 1509.203125 C1098.8587793 1510.25242187 1098.36990234 1511.30171875 1097.86621094 1512.3828125 C1085.8978677 1537.99618483 1072.90721942 1562.96562888 1058.34765625 1587.203125 C1057.42823276 1588.75121143 1056.50895284 1590.29938314 1055.58984375 1591.84765625 C1037.59304168 1621.93475472 1017.03723077 1650.36467985 994.79638672 1677.43408203 C993.48387593 1679.03678732 992.18267376 1680.64873718 990.8828125 1682.26171875 C986.32534831 1687.90848896 981.58047263 1693.32731087 976.66796875 1698.66796875 C974.77484422 1700.73638258 972.92513921 1702.82718376 971.09765625 1704.953125 C961.95930048 1715.41801628 952.27979495 1725.3676221 942.47265625 1735.203125 C941.59335449 1736.08701904 940.71405273 1736.97091309 939.80810547 1737.8815918 C935.38633321 1742.29289387 930.90446286 1746.5605329 926.16601562 1750.62988281 C923.38430104 1753.03661869 920.71774429 1755.56224669 918.03515625 1758.078125 C913.29266309 1762.48538711 908.4471597 1766.69376891 903.39453125 1770.74609375 C901.09236967 1772.60258046 898.81583284 1774.47808124 896.55078125 1776.37890625 C886.12936375 1785.10369923 875.38715097 1793.27745255 864.34765625 1801.203125 C863.60451172 1801.73711914 862.86136719 1802.27111328 862.09570312 1802.82128906 C830.72226581 1825.30048217 797.81005928 1844.83152287 763.34765625 1862.203125 C762.19765137 1862.78352539 761.04764648 1863.36392578 759.86279297 1863.96191406 C686.00980264 1900.99697095 605.35053786 1924.1425785 486.16015625 1940.390625 C485.39830017 1940.46962036 484.63644409 1940.54861572 483.85150146 1940.63000488 C478.02241923 1941.22665147 472.18826025 1941.73343988 466.34765625 1942.203125 C465.27313202 1942.29139557 464.19860779 1942.37966614 463.09152222 1942.47061157 C439.34812259 1944.35887514 415.6516911 1944.56431921 391.84358597 1944.52098083 C388.74442676 1944.51555368 385.64527516 1944.51317724 382.54611206 1944.5111084 C353.86080548 1944.48125471 325.29623364 1944.20683785 296.72167969 1941.43096924 C294.29708643 1941.19827162 291.87155309 1940.97993504 289.4453125 1940.76513672 C207.43892183 1933.45118116 125.30778122 1915.68646556 -57.65234375 1814.203125 C-58.69601744 1813.3326169 -59.74031928 1812.46286151 -60.78515625 1811.59375 C-72.26277414 1801.99624637 -83.16814172 1791.87425363 -93.74438477 1781.29638672 C-95.34438894 1779.69858607 -96.9522799 1778.10900949 -98.56054688 1776.51953125 C-105.04515994 1770.06962947 -110.95298808 1763.3685741 -116.65234375 1756.203125 C-117.58704378 1755.10122939 -118.52839526 1754.00488831 -119.48046875 1752.91796875 C-141.91397137 1727.19180687 -160.76482887 1696.73878442 -175.1328125 1665.82421875 C-175.42239838 1665.20497528 -175.71198425 1664.58573181 -176.01034546 1663.94772339 C-177.43306569 1660.90036099 -178.83195032 1657.84694966 -180.20019531 1654.77441406 C-180.70905273 1653.67194336 -181.21791016 1652.56947266 -181.7421875 1651.43359375 C-182.40528931 1649.95475708 -182.40528931 1649.95475708 -183.08178711 1648.44604492 C-184.48012002 1645.98346294 -184.48012002 1645.98346294 -187.20922852 1645.3137207 C-189.6600694 1645.00398621 -189.6600694 1645.00398621 -191.65234375 1646.203125 C-192.44544712 1648.10198847 -193.14256016 1650.04114482 -193.796875 1651.9921875 C-194.21960693 1653.2282373 -194.64233887 1654.46428711 -195.07788086 1655.73779297 C-195.30297333 1656.40309021 -195.5280658 1657.06838745 -195.75997925 1657.75384521 C-207.40311549 1692.01734137 -222.20665419 1725.04853009 -240.65234375 1756.203125 C-241.08756348 1756.93821289 -241.5227832 1757.67330078 -241.97119141 1758.43066406 C-254.26922722 1779.01025471 -268.47158706 1798.40640961 -284.6953125 1816.0625 C-286.45826881 1817.99084343 -288.15188324 1819.9594049 -289.83984375 1821.953125 C-297.79719219 1831.05515002 -306.47518365 1839.58455969 -315.96484375 1847.07421875 C-318.79923345 1849.31948385 -321.53231381 1851.66220938 -324.27734375 1854.015625 C-394.6872398 1912.56987017 -489.00510696 1931.48245857 -578.40234375 1931.390625 C-579.58030518 1931.38968842 -580.7582666 1931.38875183 -581.97192383 1931.38778687 C-599.6069184 1931.35740957 -617.10762906 1931.16178167 -634.65234375 1929.203125 C-635.33460022 1929.12771484 -636.01685669 1929.05230469 -636.7197876 1928.97460938 C-668.51813688 1925.42796249 -699.25865036 1919.39806402 -729.65234375 1909.203125 C-730.57063965 1908.9035791 -731.48893555 1908.6040332 -732.43505859 1908.29541016 C-788.61269275 1889.86101183 -840.26691741 1853.6375474 -875.65234375 1806.203125 C-876.26190918 1805.39488281 -876.26190918 1805.39488281 -876.88378906 1804.5703125 C-923.39587112 1742.60409537 -945.59170494 1662.34731155 -945.85546875 1585.41015625 C-945.86248989 1584.02320829 -945.86957672 1582.63626067 -945.87672424 1581.24931335 C-945.89613772 1576.83807921 -945.90115869 1572.42689755 -945.90234375 1568.015625 C-945.90278561 1567.26411163 -945.90322746 1566.51259827 -945.90368271 1565.73831177 C-945.91066979 1543.08444881 -945.55760584 1520.70174913 -942.65234375 1498.203125 C-942.4832976 1496.81328166 -942.31535866 1495.42330328 -942.1484375 1494.03320312 C-936.71922772 1449.26340289 -925.91597805 1405.9323949 -911.65234375 1363.203125 C-904.29862421 1363.84425811 -897.33076278 1365.328904 -890.15234375 1367.015625 C-870.84797301 1371.4188399 -851.38636374 1374.55375462 -831.65234375 1376.203125 C-830.34394531 1376.31527344 -829.03554688 1376.42742187 -827.6875 1376.54296875 C-737.26838997 1383.03322935 -644.85063073 1356.27614742 -569.65234375 1306.203125 C-568.46801758 1305.41639404 -568.46801758 1305.41639404 -567.25976562 1304.61376953 C-547.74895278 1291.59221861 -529.32000786 1277.34253093 -511.46484375 1262.140625 C-510.96774902 1261.71910156 -510.4706543 1261.29757812 -509.95849609 1260.86328125 C-498.91769704 1251.37668428 -488.51004625 1241.22465552 -478.23876953 1230.91992188 C-476.26188365 1228.93762256 -474.27963336 1226.96079867 -472.296875 1224.984375 C-466.2032062 1218.89428347 -460.19416066 1212.80713913 -454.65234375 1206.203125 C-453.58419355 1204.97597909 -452.51385631 1203.75073363 -451.44140625 1202.52734375 C-435.16807673 1183.84709176 -419.96788567 1164.4206182 -405.65234375 1144.203125 C-405.03101563 1143.33059082 -404.4096875 1142.45805664 -403.76953125 1141.55908203 C-383.89481373 1113.60283719 -366.70085168 1084.15340156 -350.015625 1054.21484375 C-346.95487186 1048.72957614 -343.84381808 1043.27468304 -340.71484375 1037.828125 C-333.56298038 1025.35952581 -326.60479143 1012.78366249 -319.65234375 1000.203125 C-319.32752014 999.61535278 -319.00269653 999.02758057 -318.66802979 998.42199707 C-314.66805078 991.18276063 -310.67407449 983.94022733 -306.68247986 976.69636536 C-304.33148051 972.43129501 -301.9736786 968.17003124 -299.61328125 963.91015625 C-291.11810252 948.57141755 -282.76447177 933.16450619 -274.515625 917.69140625 C-272.64069666 914.18132028 -270.75728808 910.67591849 -268.87109375 907.171875 C-262.06149823 894.51494758 -255.3315243 881.82352194 -248.74584961 869.04858398 C-245.47420402 862.70273276 -242.16759022 856.37701563 -238.8359375 850.0625 C-233.83574783 840.57946108 -228.91510493 831.05702477 -224.02734375 821.515625 C-223.60091583 820.68361572 -223.17448792 819.85160645 -222.73513794 818.99438477 C-210.93875445 795.96857025 -199.25633877 772.88814172 -188.20898438 749.49169922 C-186.74303174 746.39471333 -185.26881601 743.30182377 -183.79229736 740.20986938 C-174.03880517 719.77605775 -164.6335957 699.21094435 -155.53271484 678.47851562 C-154.03932646 675.07836206 -152.5346324 671.68340322 -151.02438354 668.29071045 C-114.61278004 586.46855193 -81.96616303 501.00685116 -58.33984375 375.328125 C-58.19248779 374.32773193 -58.04513184 373.32733887 -57.89331055 372.29663086 C-55.42319422 354.37779637 -54.29663923 336.45675066 -54.33666992 318.3762207 C-54.33986195 315.37350103 -54.31610836 312.37174224 -54.29101562 309.36914062 C-54.2047589 283.04226842 -58.57206172 254.99858076 -77.45263672 235.20922852 C-88.20844913 224.46998616 -101.6370092 218.28516282 -116.15234375 214.390625 C-116.87413818 214.19581543 -117.59593262 214.00100586 -118.33959961 213.80029297 C-131.58245529 210.49285734 -144.88972721 209.79171267 -158.46484375 209.828125 C-159.27015533 209.82900116 -160.07546692 209.82987732 -160.90518188 209.83078003 C-198.85373155 209.96601142 -235.40772067 220.4498076 -268.84912109 238.24853516 C-270.67617726 239.21574198 -272.51572277 240.15471393 -274.359375 241.08984375 C-298.77150011 253.60429354 -321.21310904 270.40484955 -341.2890625 289.0234375 C-343.30993697 290.88731841 -345.36694135 292.67763707 -347.46484375 294.453125 C-356.50294357 302.31477794 -364.93612905 311.05055865 -372.65234375 320.203125 C-373.91691406 321.63398437 -373.91691406 321.63398437 -375.20703125 323.09375 C-393.29433085 343.63101183 -409.15213208 366.40495187 -422.65234375 390.203125 C-423.12994141 391.04085449 -423.60753906 391.87858398 -424.09960938 392.74169922 C-459.05394853 454.47767868 -477.93683058 524.33376292 -477.83984375 595.328125 C-477.8392395 596.1536084 -477.83863525 596.9790918 -477.8380127 597.82958984 C-477.69963923 668.09631299 -464.47554501 749.18439441 -418.98046875 805.5703125 C-418.34612915 806.36574463 -418.34612915 806.36574463 -417.69897461 807.17724609 C-416.54212418 808.6075755 -415.35788747 810.01563194 -414.171875 811.421875 C-412.15074905 815.12121094 -412.67525889 817.17381317 -413.65234375 821.203125 C-420.77824186 840.88417692 -444.19429168 854.61662695 -461.65234375 864.203125 C-462.47943848 864.66041992 -463.3065332 865.11771484 -464.15869141 865.58886719 C-503.62922969 887.24021652 -546.25478748 900.38037947 -590.65234375 907.203125 C-592.21879639 907.45304199 -592.21879639 907.45304199 -593.81689453 907.70800781 C-630.42569895 913.29740327 -670.03497517 912.3643768 -706.65234375 907.203125 C-707.69519531 907.06922363 -708.73804688 906.93532227 -709.8125 906.79736328 C-758.54989961 900.50694484 -808.41056983 883.80537621 -846.65234375 852.203125 C-847.21373047 851.74325195 -847.77511719 851.28337891 -848.35351562 850.80957031 C-903.65881141 805.27672645 -929.31747489 739.12380178 -936.37011719 669.19091797 C-936.46325195 668.20494629 -936.55638672 667.21897461 -936.65234375 666.203125 C-936.74805664 665.20812988 -936.84376953 664.21313477 -936.94238281 663.18798828 C-937.91023951 651.66910593 -937.89596032 640.13051567 -937.90234375 628.578125 C-937.90301849 627.4763089 -937.90369324 626.3744928 -937.90438843 625.23928833 C-937.88523407 605.42598781 -937.0347745 585.87388315 -934.65234375 566.203125 C-934.52859375 565.17750458 -934.52859375 565.17750458 -934.40234375 564.13116455 C-927.88286569 510.92689512 -912.92312101 459.49729035 -889.65234375 411.203125 C-888.96301758 409.75292969 -888.96301758 409.75292969 -888.25976562 408.2734375 C-877.78755181 386.30946193 -865.5820786 365.16355062 -851.65234375 345.203125 C-850.72520785 343.85550491 -849.79812711 342.50784687 -848.87109375 341.16015625 C-838.42962979 326.08325195 -827.17802394 311.69529178 -815.11132812 297.88867188 C-813.63250541 296.180206 -812.17872424 294.45317614 -810.73046875 292.71875 C-804.96859511 285.84287593 -798.9824176 279.33922769 -792.54736328 273.08398438 C-789.15801922 269.77895235 -786.03664743 266.35740024 -782.98779297 262.73657227 C-781.42177316 260.93836926 -779.74452035 259.40267703 -777.90234375 257.890625 C-774.6574808 255.13496849 -771.64207879 252.23412939 -768.65234375 249.203125 C-764.4732109 244.98605751 -760.16348324 241.05715907 -755.65234375 237.203125 C-754.49125337 236.19117497 -753.33119353 235.17804192 -752.171875 234.1640625 C-745.12489044 228.00760134 -738.03210297 221.95994962 -730.65234375 216.203125 C-729.32538957 215.15641639 -727.99857993 214.10952453 -726.671875 213.0625 C-712.41356992 201.8497802 -697.8574225 191.10283455 -682.65234375 181.203125 C-681.2536044 180.27779987 -679.85519348 179.35197817 -678.45703125 178.42578125 C-657.3875534 164.52898517 -635.85639121 151.46985489 -613.51855469 139.71191406 C-610.6960988 138.22615789 -607.88097078 136.72720256 -605.06640625 135.2265625 C-532.54026576 96.75650582 -454.90793455 69.13734895 -51.65234375 1.203125 C-50.71993457 1.15887579 -49.78752539 1.11462658 -48.82686138 1.06903648 C-32.54689333 0.31298623 -16.29631169 0.02610053 0 0 Z M291.34765625 241.203125 C286.75291376 254.98735247 290.96890471 273.94897956 292.42840576 288.09368896 C301.10687512 372.85761319 291.77499171 457.12458705 199.27026367 720.24395752 C198.3003162 722.30365214 197.33258495 724.3643775 196.36523438 726.42529297 C186.22617145 748.01791607 175.85065337 769.48861739 165.36010742 790.91244507 C164.93189697 791.7869632 164.50368652 792.66148132 164.0625 793.5625 C163.64363525 794.41792389 163.22477051 795.27334778 162.79321289 796.1546936 C157.90754716 806.13766389 153.09799804 816.15503547 148.34765625 826.203125 C147.53433838 827.91628906 147.53433838 827.91628906 146.70458984 829.6640625 C108.88402159 909.34911834 74.00226409 992.19593909 59.34765625 1101.203125 C59.26045319 1102.03455017 59.17325012 1102.86597534 59.08340454 1103.72259521 C57.46905714 1119.52519742 57.00470096 1135.23052003 57.03198242 1151.11035156 C57.03514197 1154.93583753 57.0115661 1158.76054618 56.98632812 1162.5859375 C56.80630076 1232.45419478 76.72066854 1303.80626651 120.34765625 1359.203125 C121.064375 1360.11320312 121.78109375 1361.02328125 122.51953125 1361.9609375 C134.66573454 1377.07908415 148.07828102 1391.22633742 163.34765625 1403.203125 C164.43979988 1404.08470281 165.53090221 1404.96757181 166.62109375 1405.8515625 C222.13299241 1450.59249574 293.13525003 1471.0215539 363.34765625 1476.203125 C364.10900879 1476.26097168 364.87036133 1476.31881836 365.65478516 1476.37841797 C454.80385366 1482.82684812 542.46482825 1462.18212359 621.34765625 1401.203125 C622.28609375 1400.4503125 623.22453125 1399.6975 624.19140625 1398.921875 C632.66273462 1391.99631304 640.41345167 1384.35301511 648.16015625 1376.640625 C648.96357956 1375.84496628 648.96357956 1375.84496628 649.78323364 1375.03323364 C656.77885928 1368.09091464 663.21317472 1360.9323113 669.34765625 1353.203125 C670.40785688 1351.93209166 671.4724478 1350.66469711 672.54296875 1349.40234375 C686.12642721 1333.20335186 697.70556132 1315.44671631 708.34765625 1297.203125 C708.75258301 1296.50896484 709.15750977 1295.81480469 709.57470703 1295.09960938 C757.80580167 1211.70849279 779.31201896 1115.8917025 788.59765625 1020.828125 C788.67487915 1020.0539624 788.75210205 1019.2797998 788.83166504 1018.48217773 C791.86627661 987.58040563 792.73299722 956.59377976 792.66571426 925.5616684 C792.66004726 922.90197184 792.65724422 920.24228172 792.65463257 917.58258057 C792.61926106 892.78952113 792.41295568 868.09151221 789.60089111 843.42919922 C789.33512261 841.0929474 789.08091211 838.75560593 788.82763672 836.41796875 C779.88816943 754.99820709 758.07320852 675.64209322 717.34765625 588.203125 C716.69120117 586.83244873 716.69120117 586.83244873 716.02148438 585.43408203 C709.40316846 571.67861967 701.98007395 558.4176787 694.34765625 545.203125 C693.90953613 544.4390332 693.47141602 543.67494141 693.02001953 542.88769531 C667.84590367 499.0102399 637.29787403 457.94318783 602.87719727 420.8762207 C601.73074766 419.62217136 600.59804535 418.35553085 599.47241211 417.08276367 C593.54240427 410.39248107 587.33049276 404.03202575 580.99975586 397.72485352 C579.28056955 396.01105267 577.56683042 394.29193418 575.85351562 392.57226562 C570.184966 386.90028681 564.45440549 381.40650364 558.34765625 376.203125 C556.57195404 374.58344683 554.80057318 372.95900782 553.03515625 371.328125 C547.63295484 366.40694153 542.03535727 361.78810847 536.34765625 357.203125 C535.11760609 356.19378406 533.88849415 355.18329902 532.66015625 354.171875 C500.13829132 327.44885671 465.06178989 304.44842393 427.95703125 284.60400391 C425.54823478 283.31080835 423.15001647 282.00009769 420.75390625 280.68359375 C390.75599474 264.3470887 358.55740719 251.93717339 326.09765625 241.453125 C325.43944885 241.24007721 324.78124146 241.02702942 324.10308838 240.80752563 C306.71811578 234.44489225 306.71811578 234.44489225 291.34765625 241.203125 Z " fill="#DD241D" transform="translate(945.65234375,-0.203125)"/>
</svg>
